<svg id="Layer_1" data-name="Layer 1" xmlns="http://www.w3.org/2000/svg" viewBox="0 0 1157.52 674.1"><defs><style>.cls-1,.cls-2{fill:#fff;}.cls-2{stroke:#231f20;stroke-miterlimit:10;}.cls-3{fill:#f89a28;}.cls-4{fill:#821618;}.cls-5{fill:#f9f298;}.cls-6{fill:#231f20;}</style></defs><title>flying-pen</title><polygon class="cls-1" points="403.96 433.2 322.06 146.51 394.44 174.89 473.27 461.24 403.96 433.2"/><polygon class="cls-1" points="58.93 162.04 0 16.18 342.73 154.65 401.66 300.51 58.93 162.04"/><polygon class="cls-1" points="198.17 291.26 158.17 192.26 378.84 281.41 418.84 380.42 198.17 291.26"/><polygon class="cls-1" points="285.65 375.52 257.35 305.47 402.58 364.15 430.89 434.2 285.65 375.52"/><polygon class="cls-1" points="753.56 433.2 835.46 146.51 763.08 174.89 684.25 461.24 753.56 433.2"/><polygon class="cls-1" points="1098.59 162.04 1157.52 16.18 814.79 154.65 755.86 300.51 1098.59 162.04"/><polygon class="cls-1" points="959.35 291.26 999.35 192.26 778.68 281.41 738.68 380.42 959.35 291.26"/><polygon class="cls-1" points="871.87 375.52 900.17 305.47 754.94 364.15 726.64 434.2 871.87 375.52"/><path class="cls-2" d="M448.52,537.25" transform="translate(99.04 56.62)"/><polygon class="cls-3" points="372.09 288.33 174.62 208.54 205.25 284.35 402.72 364.13 372.09 288.33"/><polygon class="cls-3" points="395.84 371.07 273.8 321.76 292.73 368.61 414.77 417.91 395.84 371.07"/><polygon class="cls-4" points="335.88 161.53 411.58 426.51 459.93 446.06 387.13 181.63 335.88 161.53"/><polygon class="cls-4" points="335.98 161.56 16.45 32.47 66.01 155.13 385.54 284.23 335.98 161.56"/><polygon class="cls-3" points="785.43 288.33 982.9 208.54 952.27 284.35 754.8 364.13 785.43 288.33"/><polygon class="cls-3" points="761.68 371.07 883.72 321.76 864.79 368.61 742.76 417.91 761.68 371.07"/><polygon class="cls-4" points="821.64 161.53 745.94 426.51 697.6 446.06 770.39 181.63 821.64 161.53"/><polygon class="cls-4" points="821.54 161.56 1141.07 32.47 1091.51 155.13 771.98 284.23 821.54 161.56"/><path class="cls-1" d="M479.67-56.62s-162.12,42.25-242,115.71c0,0,69.35,48.29,125.23,383.3,0,0,81.45,66.35,95.8,165.73,1.23,6.24,10.12,9.36,15.72,9.36h10.53c5.6,0,14.49-3.12,15.72-9.36,14.35-99.38,95.8-165.73,95.8-165.73,55.88-335,125.23-383.3,125.23-383.3C641.79-14.37,479.67-56.62,479.67-56.62Z" transform="translate(99.04 56.62)"/><path class="cls-4" d="M479.72-42.88S332.3-10.16,250.92,59.65c0,0,68.42,68.63,118.65,378.42,58.07,18.09,109.78,170.21,109.78,170.21m0.76,0s51.71-152.12,109.78-170.21C640.1,128.29,708.52,59.65,708.52,59.65,627.14-10.16,479.72-42.88,479.72-42.88" transform="translate(99.04 56.62)"/><path class="cls-5" d="M480.1,612.19h-2.89c-2.5-10.67-63.69-145.52-63.69-145.52L412,455.8C384.29,236.46,329.11,90.72,329.11,90.72c64.62-59.53,150.61-59.55,150.61-59.55m0,0s86,0,150.61,59.55c0,0-55.18,145.74-82.92,365.08l-1.48,10.88s-61.19,134.85-63.69,145.52h-2.89" transform="translate(99.04 56.62)"/><rect class="cls-6" x="573.76" y="207.17" width="10" height="461.64"/><circle class="cls-6" cx="578.76" cy="209.61" r="15.15"/><path class="cls-4" d="M408.66,433.14l-39.1,4.94S454.91,511.7,465,608.29c0.87,1.78,4.8,3.31,9.77,3.91v-3.91C474.75,549.84,433.37,468.72,408.66,433.14Z" transform="translate(99.04 56.62)"/><path class="cls-4" d="M550.78,433.14c-24.71,35.58-66.09,116.7-66.09,175.15v3.91c5-.6,8.9-2.12,9.77-3.91,10.07-96.59,95.42-170.21,95.42-170.21Z" transform="translate(99.04 56.62)"/></svg>