<svg width="186" height="186" viewBox="0 0 186 186" fill="none" xmlns="http://www.w3.org/2000/svg">
<path fill-rule="evenodd" clip-rule="evenodd" d="M87.893 16.4729L28.3847 140.679C25.2044 147.317 30.0427 155 37.403 155H148.462C155.592 155 160.431 147.752 157.698 141.167L106.147 16.9603C102.833 8.97366 91.6293 8.67454 87.893 16.4729ZM84.9507 40.3398L36.3371 140.469C34.7248 143.79 37.1435 147.653 40.835 147.653H132.258C135.845 147.653 138.265 143.986 136.855 140.688L94.046 40.558C92.361 36.6168 86.8227 36.484 84.9507 40.3398ZM61.4726 112.249C61.4726 110.023 63.2777 108.217 65.5045 108.217H83.607V90.115C83.607 87.8882 85.4121 86.0831 87.6389 86.0831C89.8657 86.0831 91.6708 87.8882 91.6708 90.115V108.217H109.773C112 108.217 113.805 110.023 113.805 112.249C113.805 114.476 112 116.281 109.773 116.281H91.6708V134.384C91.6708 136.61 89.8657 138.416 87.6389 138.416C85.4121 138.416 83.607 136.611 83.607 134.384V116.281H65.5045C63.2777 116.281 61.4726 114.476 61.4726 112.249Z" fill="url(#paint0_radial_15_0)"/>
<defs>
<radialGradient id="paint0_radial_15_0" cx="0" cy="0" r="1" gradientUnits="userSpaceOnUse" gradientTransform="translate(85.8183 175.554) rotate(-87.7184) scale(178.682 127.477)">
<stop stop-color="#FEC974"/>
<stop offset="0.0939227" stop-color="#FD8314"/>
<stop offset="0.469613" stop-color="#EB545B"/>
<stop offset="1" stop-color="#4A3266"/>
</radialGradient>
</defs>
</svg>
